<?xml version="1.0" encoding="UTF-8" standalone="no"?>
<svg
   xmlns:dc="http://purl.org/dc/elements/1.1/"
   xmlns:cc="http://creativecommons.org/ns#"
   xmlns:rdf="http://www.w3.org/1999/02/22-rdf-syntax-ns#"
   xmlns:svg="http://www.w3.org/2000/svg"
   xmlns="http://www.w3.org/2000/svg"
   viewBox="0 0 1122.52 145.276"
   height="145.276"
   width="1122.52"
   xml:space="preserve"
   id="svg2"
   version="1.1"><metadata
     id="metadata8"><rdf:RDF><cc:Work
         rdf:about=""><dc:format>image/svg+xml</dc:format><dc:type
           rdf:resource="http://purl.org/dc/dcmitype/StillImage" /></cc:Work></rdf:RDF></metadata><defs
     id="defs6"><clipPath
       id="clipPath18"
       clipPathUnits="userSpaceOnUse"><path
         id="path16"
         d="M 0,108.957 H 841.89 V 0 H 0 Z" /></clipPath></defs><g
     transform="matrix(1.3333333,0,0,-1.3333333,0,145.276)"
     id="g10"><g
       id="g12"><g
         clip-path="url(#clipPath18)"
         id="g14"><g
           transform="translate(300.3702,35.61)"
           id="g20"><path
             id="path22"
             style="fill:#1f2226;fill-opacity:1;fill-rule:nonzero;stroke:none"
             d="m 0,0 -15.867,33.602 c -2.932,6.266 -6.266,14.533 -6.799,15.599 -0.534,-1.066 -3.734,-9.2 -6.8,-15.599 L -45.333,0 Z m -27.467,61.201 h 9.601 l 40.534,-86.666 h -10.8 l -8,16.8 h -52.934 l -8,-16.8 h -10.933 z" /></g><g
           transform="translate(327.6907,42.5444)"
           id="g24"><path
             id="path26"
             style="fill:#1f2226;fill-opacity:1;fill-rule:nonzero;stroke:none"
             d="m 0,0 c 0,18.933 15.066,33.868 34.133,33.868 8.933,0 17.067,-3.202 23.2,-8.668 l -6.4,-7.199 c -3.999,3.733 -9.867,6 -16.667,6 C 20.667,24.001 10.4,13.867 10.4,0 c 0,-13.465 9.866,-23.867 24.132,-23.867 7.334,0 14.001,2.801 18.535,7.335 l 5.865,-7.6 C 52.666,-30.134 43.867,-33.733 34.133,-33.733 15.066,-33.733 0,-18.932 0,0" /></g><g
           transform="translate(449.6795,42.5444)"
           id="g28"><path
             id="path30"
             style="fill:#1f2226;fill-opacity:1;fill-rule:nonzero;stroke:none"
             d="m 0,0 c 0,13.6 -9.732,24.001 -22.133,24.001 -12.933,0 -22.533,-10.134 -22.533,-24.001 0,-13.734 9.6,-23.867 22.533,-23.867 C -9.732,-23.867 0,-13.6 0,0 m -55.065,0 c 0,19.066 12.667,33.868 30.667,33.868 C -13.997,33.868 -4.797,29.601 0,21.2 V 32.535 H 10.136 V -32.4 H 0 v 11.334 c -4.797,-8.533 -13.997,-12.667 -24.398,-12.667 -18,0 -30.667,14.933 -30.667,33.733" /></g><g
           transform="translate(529.2674,42.5444)"
           id="g32"><path
             id="path34"
             style="fill:#1f2226;fill-opacity:1;fill-rule:nonzero;stroke:none"
             d="m 0,0 c 0,13.6 -9.732,24.001 -22.133,24.001 -12.933,0 -22.533,-10.134 -22.533,-24.001 0,-13.734 9.6,-23.867 22.533,-23.867 C -9.732,-23.867 0,-13.6 0,0 m -55.065,0 c 0,19.066 12.667,33.868 30.667,33.868 C -13.997,33.868 -4.797,29.601 0,21.2 V 55.334 H 10.136 V -32.4 H 0.401 v 11.334 c -4.801,-8.533 -14.266,-12.667 -24.799,-12.667 -18,0 -30.667,14.933 -30.667,33.733" /></g><g
           transform="translate(607.5222,46.6781)"
           id="g36"><path
             id="path38"
             style="fill:#1f2226;fill-opacity:1;fill-rule:nonzero;stroke:none"
             d="M 0,0 C -1.064,12.001 -10.267,20.667 -21.598,20.667 -32.666,20.667 -41.731,12.134 -43.199,0 Z m -53.732,-4.134 c 0,18.801 14.132,33.868 32.666,33.868 17.333,0 31.067,-14.934 31.067,-33.467 0,-1.868 -0.266,-3.868 -0.266,-3.999 h -52.934 c 1.599,-12.933 11.6,-21.069 23.601,-21.069 7.332,0 14.666,2.534 19.999,6.934 L 4.8,-29.333 c -6.931,-5.467 -15.599,-8.534 -24.533,-8.534 -18.4,0 -33.999,13.199 -33.999,33.733" /></g><g
           transform="translate(631.9141,75.0789)"
           id="g40"><path
             id="path42"
             style="fill:#1f2226;fill-opacity:1;fill-rule:nonzero;stroke:none"
             d="m 0,0 h 10.132 v -11.201 c 3.602,7.067 11.735,12.534 20.8,12.534 10.402,0 17.734,-4.534 20.8,-13.734 4.669,9.467 14.801,13.734 22.402,13.734 15.599,0 23.867,-9.067 23.867,-26.933 V -64.934 H 87.734 v 37.999 c 0,11.067 -3.868,18.402 -15.734,18.402 -10.933,0 -17.868,-8.801 -17.868,-18.535 V -64.934 H 43.865 v 37.999 c 0,11.067 -3.864,18.402 -15.599,18.402 -11.334,0 -18.134,-9.601 -18.134,-19.068 V -64.934 H 0 Z" /></g><path
           id="path44"
           style="fill:#1f2226;fill-opacity:1;fill-rule:nonzero;stroke:none"
           d="m 745.763,75.079 h 10.132 V 10.145 h -10.132 z m -1.599,18.265 c 0,3.735 2.932,6.801 6.666,6.801 3.733,0 6.799,-3.066 6.799,-6.801 0,-3.733 -3.066,-6.665 -6.799,-6.665 -3.734,0 -6.666,2.932 -6.666,6.665" /><g
           transform="translate(825.3579,42.5444)"
           id="g46"><path
             id="path48"
             style="fill:#1f2226;fill-opacity:1;fill-rule:nonzero;stroke:none"
             d="m 0,0 c 0,13.6 -9.732,24.001 -22.133,24.001 -12.933,0 -22.533,-10.134 -22.533,-24.001 0,-13.734 9.6,-23.867 22.533,-23.867 C -9.732,-23.867 0,-13.6 0,0 m -55.065,0 c 0,19.066 12.667,33.868 30.667,33.868 C -13.997,33.868 -4.797,29.601 0,21.2 V 32.535 H 10.136 V -32.4 H 0 v 11.334 c -4.797,-8.533 -13.997,-12.667 -24.398,-12.667 -18,0 -30.667,14.933 -30.667,33.733" /></g><g
           transform="translate(205.9827,97.8783)"
           id="g50"><path
             id="path52"
             style="fill:#0661ff;fill-opacity:1;fill-rule:nonzero;stroke:none"
             d="m 0,0 v -46.619 c -4.541,10.316 -14.839,17.528 -26.834,17.528 -16.194,0 -29.321,-13.128 -29.321,-29.321 0,-16.194 13.127,-29.322 29.321,-29.322 11.995,0 22.293,7.212 26.834,17.528 V -87.734 H 17.866 V 0 Z" /></g><g
           transform="translate(126.9368,97.8783)"
           id="g54"><path
             id="path56"
             style="fill:#0661ff;fill-opacity:1;fill-rule:nonzero;stroke:none"
             d="m 0,0 v -46.619 c -4.541,10.316 -14.839,17.528 -26.834,17.528 -16.194,0 -29.321,-13.128 -29.321,-29.321 0,-16.194 13.127,-29.322 29.321,-29.322 11.995,0 22.293,7.212 26.834,17.528 V -87.734 H 17.866 V 0 Z" /></g><g
           transform="translate(65.7572,39.8249)"
           id="g58"><path
             id="path60"
             style="fill:#0661ff;fill-opacity:1;fill-rule:nonzero;stroke:none"
             d="m 0,0 c 0,-16.392 -13.288,-29.68 -29.68,-29.68 -16.392,0 -29.681,13.288 -29.681,29.68 0,16.392 13.289,29.68 29.681,29.68 C -13.288,29.68 0,16.392 0,0" /></g></g></g></g></svg>